<svg xmlns="http://www.w3.org/2000/svg" width="764" height="452" viewBox="0 0 764 452">
  <rect width="100%" height="100%" rx="28" ry="28" fill="#fffdfa" />
  <text x="28" y="40" font-size="26" font-weight="700" fill="#1f1a14" font-family="Iowan Old Style, Palatino Linotype, serif">竞品能力热力图</text>
  <text x="28" y="68" font-size="14" fill="#6d5e51" font-family="Avenir Next, Segoe UI, sans-serif">5 = 很强，1 = 很弱。用于快速判断今天最值得借鉴的产品方向。</text>
  <text x="231.0" y="58" text-anchor="middle" font-size="15" fill="#5d5046" font-family="Avenir Next, Segoe UI, sans-serif">发现路径</text><text x="343.0" y="58" text-anchor="middle" font-size="15" fill="#5d5046" font-family="Avenir Next, Segoe UI, sans-serif">持续跟踪</text><text x="455.0" y="58" text-anchor="middle" font-size="15" fill="#5d5046" font-family="Avenir Next, Segoe UI, sans-serif">阅读辅助</text><text x="567.0" y="58" text-anchor="middle" font-size="15" fill="#5d5046" font-family="Avenir Next, Segoe UI, sans-serif">结构化输出</text><text x="679.0" y="58" text-anchor="middle" font-size="15" fill="#5d5046" font-family="Avenir Next, Segoe UI, sans-serif">工作区组织</text>
  <text x="164" y="122" text-anchor="end" font-size="16" fill="#1f1a14" font-family="Avenir Next, Segoe UI, sans-serif">Litmaps</text><rect x="180" y="92" rx="16" ry="16" width="102" height="38" fill="#2d7a68" stroke="rgba(28,46,39,0.08)" /><text x="231.0" y="120" text-anchor="middle" font-size="16" font-weight="700" fill="#ffffff" font-family="Avenir Next, Segoe UI, sans-serif">5</text><rect x="292" y="92" rx="16" ry="16" width="102" height="38" fill="#2d7a68" stroke="rgba(28,46,39,0.08)" /><text x="343.0" y="120" text-anchor="middle" font-size="16" font-weight="700" fill="#ffffff" font-family="Avenir Next, Segoe UI, sans-serif">5</text><rect x="404" y="92" rx="16" ry="16" width="102" height="38" fill="#dfd7cb" stroke="rgba(28,46,39,0.08)" /><text x="455.0" y="120" text-anchor="middle" font-size="16" font-weight="700" fill="#3c342b" font-family="Avenir Next, Segoe UI, sans-serif">2</text><rect x="516" y="92" rx="16" ry="16" width="102" height="38" fill="#dfd7cb" stroke="rgba(28,46,39,0.08)" /><text x="567.0" y="120" text-anchor="middle" font-size="16" font-weight="700" fill="#3c342b" font-family="Avenir Next, Segoe UI, sans-serif">2</text><rect x="628" y="92" rx="16" ry="16" width="102" height="38" fill="#c7dbc9" stroke="rgba(28,46,39,0.08)" /><text x="679.0" y="120" text-anchor="middle" font-size="16" font-weight="700" fill="#3c342b" font-family="Avenir Next, Segoe UI, sans-serif">3</text><text x="164" y="170" text-anchor="end" font-size="16" fill="#1f1a14" font-family="Avenir Next, Segoe UI, sans-serif">ResearchRabbit</text><rect x="180" y="140" rx="16" ry="16" width="102" height="38" fill="#2d7a68" stroke="rgba(28,46,39,0.08)" /><text x="231.0" y="168" text-anchor="middle" font-size="16" font-weight="700" fill="#ffffff" font-family="Avenir Next, Segoe UI, sans-serif">5</text><rect x="292" y="140" rx="16" ry="16" width="102" height="38" fill="#8fbca1" stroke="rgba(28,46,39,0.08)" /><text x="343.0" y="168" text-anchor="middle" font-size="16" font-weight="700" fill="#ffffff" font-family="Avenir Next, Segoe UI, sans-serif">4</text><rect x="404" y="140" rx="16" ry="16" width="102" height="38" fill="#c7dbc9" stroke="rgba(28,46,39,0.08)" /><text x="455.0" y="168" text-anchor="middle" font-size="16" font-weight="700" fill="#3c342b" font-family="Avenir Next, Segoe UI, sans-serif">3</text><rect x="516" y="140" rx="16" ry="16" width="102" height="38" fill="#dfd7cb" stroke="rgba(28,46,39,0.08)" /><text x="567.0" y="168" text-anchor="middle" font-size="16" font-weight="700" fill="#3c342b" font-family="Avenir Next, Segoe UI, sans-serif">2</text><rect x="628" y="140" rx="16" ry="16" width="102" height="38" fill="#2d7a68" stroke="rgba(28,46,39,0.08)" /><text x="679.0" y="168" text-anchor="middle" font-size="16" font-weight="700" fill="#ffffff" font-family="Avenir Next, Segoe UI, sans-serif">5</text><text x="164" y="218" text-anchor="end" font-size="16" fill="#1f1a14" font-family="Avenir Next, Segoe UI, sans-serif">Semantic Scholar</text><rect x="180" y="188" rx="16" ry="16" width="102" height="38" fill="#8fbca1" stroke="rgba(28,46,39,0.08)" /><text x="231.0" y="216" text-anchor="middle" font-size="16" font-weight="700" fill="#ffffff" font-family="Avenir Next, Segoe UI, sans-serif">4</text><rect x="292" y="188" rx="16" ry="16" width="102" height="38" fill="#2d7a68" stroke="rgba(28,46,39,0.08)" /><text x="343.0" y="216" text-anchor="middle" font-size="16" font-weight="700" fill="#ffffff" font-family="Avenir Next, Segoe UI, sans-serif">5</text><rect x="404" y="188" rx="16" ry="16" width="102" height="38" fill="#c7dbc9" stroke="rgba(28,46,39,0.08)" /><text x="455.0" y="216" text-anchor="middle" font-size="16" font-weight="700" fill="#3c342b" font-family="Avenir Next, Segoe UI, sans-serif">3</text><rect x="516" y="188" rx="16" ry="16" width="102" height="38" fill="#c7dbc9" stroke="rgba(28,46,39,0.08)" /><text x="567.0" y="216" text-anchor="middle" font-size="16" font-weight="700" fill="#3c342b" font-family="Avenir Next, Segoe UI, sans-serif">3</text><rect x="628" y="188" rx="16" ry="16" width="102" height="38" fill="#8fbca1" stroke="rgba(28,46,39,0.08)" /><text x="679.0" y="216" text-anchor="middle" font-size="16" font-weight="700" fill="#ffffff" font-family="Avenir Next, Segoe UI, sans-serif">4</text><text x="164" y="266" text-anchor="end" font-size="16" fill="#1f1a14" font-family="Avenir Next, Segoe UI, sans-serif">Elicit</text><rect x="180" y="236" rx="16" ry="16" width="102" height="38" fill="#c7dbc9" stroke="rgba(28,46,39,0.08)" /><text x="231.0" y="264" text-anchor="middle" font-size="16" font-weight="700" fill="#3c342b" font-family="Avenir Next, Segoe UI, sans-serif">3</text><rect x="292" y="236" rx="16" ry="16" width="102" height="38" fill="#8fbca1" stroke="rgba(28,46,39,0.08)" /><text x="343.0" y="264" text-anchor="middle" font-size="16" font-weight="700" fill="#ffffff" font-family="Avenir Next, Segoe UI, sans-serif">4</text><rect x="404" y="236" rx="16" ry="16" width="102" height="38" fill="#8fbca1" stroke="rgba(28,46,39,0.08)" /><text x="455.0" y="264" text-anchor="middle" font-size="16" font-weight="700" fill="#ffffff" font-family="Avenir Next, Segoe UI, sans-serif">4</text><rect x="516" y="236" rx="16" ry="16" width="102" height="38" fill="#2d7a68" stroke="rgba(28,46,39,0.08)" /><text x="567.0" y="264" text-anchor="middle" font-size="16" font-weight="700" fill="#ffffff" font-family="Avenir Next, Segoe UI, sans-serif">5</text><rect x="628" y="236" rx="16" ry="16" width="102" height="38" fill="#8fbca1" stroke="rgba(28,46,39,0.08)" /><text x="679.0" y="264" text-anchor="middle" font-size="16" font-weight="700" fill="#ffffff" font-family="Avenir Next, Segoe UI, sans-serif">4</text><text x="164" y="314" text-anchor="end" font-size="16" fill="#1f1a14" font-family="Avenir Next, Segoe UI, sans-serif">SciSpace</text><rect x="180" y="284" rx="16" ry="16" width="102" height="38" fill="#c7dbc9" stroke="rgba(28,46,39,0.08)" /><text x="231.0" y="312" text-anchor="middle" font-size="16" font-weight="700" fill="#3c342b" font-family="Avenir Next, Segoe UI, sans-serif">3</text><rect x="292" y="284" rx="16" ry="16" width="102" height="38" fill="#c7dbc9" stroke="rgba(28,46,39,0.08)" /><text x="343.0" y="312" text-anchor="middle" font-size="16" font-weight="700" fill="#3c342b" font-family="Avenir Next, Segoe UI, sans-serif">3</text><rect x="404" y="284" rx="16" ry="16" width="102" height="38" fill="#2d7a68" stroke="rgba(28,46,39,0.08)" /><text x="455.0" y="312" text-anchor="middle" font-size="16" font-weight="700" fill="#ffffff" font-family="Avenir Next, Segoe UI, sans-serif">5</text><rect x="516" y="284" rx="16" ry="16" width="102" height="38" fill="#8fbca1" stroke="rgba(28,46,39,0.08)" /><text x="567.0" y="312" text-anchor="middle" font-size="16" font-weight="700" fill="#ffffff" font-family="Avenir Next, Segoe UI, sans-serif">4</text><rect x="628" y="284" rx="16" ry="16" width="102" height="38" fill="#c7dbc9" stroke="rgba(28,46,39,0.08)" /><text x="679.0" y="312" text-anchor="middle" font-size="16" font-weight="700" fill="#3c342b" font-family="Avenir Next, Segoe UI, sans-serif">3</text><text x="164" y="362" text-anchor="end" font-size="16" fill="#1f1a14" font-family="Avenir Next, Segoe UI, sans-serif">Research Atlas</text><rect x="180" y="332" rx="16" ry="16" width="102" height="38" fill="#8fbca1" stroke="rgba(28,46,39,0.08)" /><text x="231.0" y="360" text-anchor="middle" font-size="16" font-weight="700" fill="#ffffff" font-family="Avenir Next, Segoe UI, sans-serif">4</text><rect x="292" y="332" rx="16" ry="16" width="102" height="38" fill="#dfd7cb" stroke="rgba(28,46,39,0.08)" /><text x="343.0" y="360" text-anchor="middle" font-size="16" font-weight="700" fill="#3c342b" font-family="Avenir Next, Segoe UI, sans-serif">2</text><rect x="404" y="332" rx="16" ry="16" width="102" height="38" fill="#8fbca1" stroke="rgba(28,46,39,0.08)" /><text x="455.0" y="360" text-anchor="middle" font-size="16" font-weight="700" fill="#ffffff" font-family="Avenir Next, Segoe UI, sans-serif">4</text><rect x="516" y="332" rx="16" ry="16" width="102" height="38" fill="#8fbca1" stroke="rgba(28,46,39,0.08)" /><text x="567.0" y="360" text-anchor="middle" font-size="16" font-weight="700" fill="#ffffff" font-family="Avenir Next, Segoe UI, sans-serif">4</text><rect x="628" y="332" rx="16" ry="16" width="102" height="38" fill="#8fbca1" stroke="rgba(28,46,39,0.08)" /><text x="679.0" y="360" text-anchor="middle" font-size="16" font-weight="700" fill="#ffffff" font-family="Avenir Next, Segoe UI, sans-serif">4</text>
  <rect x="180" y="410" rx="10" ry="10" width="72" height="24" fill="#efe7dd" /><text x="216" y="427" text-anchor="middle" font-size="12" font-weight="700" fill="#3c342b" font-family="Avenir Next, Segoe UI, sans-serif">1</text><rect x="292" y="410" rx="10" ry="10" width="72" height="24" fill="#dfd7cb" /><text x="328" y="427" text-anchor="middle" font-size="12" font-weight="700" fill="#3c342b" font-family="Avenir Next, Segoe UI, sans-serif">2</text><rect x="404" y="410" rx="10" ry="10" width="72" height="24" fill="#c7dbc9" /><text x="440" y="427" text-anchor="middle" font-size="12" font-weight="700" fill="#3c342b" font-family="Avenir Next, Segoe UI, sans-serif">3</text><rect x="516" y="410" rx="10" ry="10" width="72" height="24" fill="#8fbca1" /><text x="552" y="427" text-anchor="middle" font-size="12" font-weight="700" fill="#fff" font-family="Avenir Next, Segoe UI, sans-serif">4</text><rect x="628" y="410" rx="10" ry="10" width="72" height="24" fill="#2d7a68" /><text x="664" y="427" text-anchor="middle" font-size="12" font-weight="700" fill="#fff" font-family="Avenir Next, Segoe UI, sans-serif">5</text>
</svg>
