<svg xmlns="http://www.w3.org/2000/svg" width="770" height="488" viewBox="0 0 770 488" role="img" aria-label="竞品能力热力图">
  <rect width="100%" height="100%" rx="28" ry="28" fill="#fffdfa" />
  <text x="28" y="40" font-size="25" font-weight="700" fill="#1f1a14" font-family="Iowan Old Style, Palatino Linotype, serif">竞品能力热力图</text>
  <text x="28" y="66" font-size="14" fill="#6d5e51" font-family="Avenir Next, Segoe UI, sans-serif">5 = 很强，1 = 很弱。用于快速判断今天最值得借鉴的产品方向。</text>
  <text x="222.0" y="88" text-anchor="middle" font-size="15" fill="#5d5046" font-family="Avenir Next, Segoe UI, sans-serif">发现路径</text><text x="338.0" y="88" text-anchor="middle" font-size="15" fill="#5d5046" font-family="Avenir Next, Segoe UI, sans-serif">持续跟踪</text><text x="454.0" y="88" text-anchor="middle" font-size="15" fill="#5d5046" font-family="Avenir Next, Segoe UI, sans-serif">阅读辅助</text><text x="570.0" y="88" text-anchor="middle" font-size="15" fill="#5d5046" font-family="Avenir Next, Segoe UI, sans-serif">结构化输出</text><text x="686.0" y="88" text-anchor="middle" font-size="15" fill="#5d5046" font-family="Avenir Next, Segoe UI, sans-serif">工作区组织</text>
  <text x="156" y="149" text-anchor="end" font-size="16" fill="#1f1a14" font-family="Avenir Next, Segoe UI, sans-serif">Litmaps</text><rect x="170" y="118" rx="16" ry="16" width="104" height="38" fill="#2d7a68" stroke="rgba(28,46,39,0.08)" /><text x="222.0" y="146" text-anchor="middle" font-size="16" font-weight="700" fill="#ffffff" font-family="Avenir Next, Segoe UI, sans-serif">5</text><rect x="286" y="118" rx="16" ry="16" width="104" height="38" fill="#2d7a68" stroke="rgba(28,46,39,0.08)" /><text x="338.0" y="146" text-anchor="middle" font-size="16" font-weight="700" fill="#ffffff" font-family="Avenir Next, Segoe UI, sans-serif">5</text><rect x="402" y="118" rx="16" ry="16" width="104" height="38" fill="#dfd7cb" stroke="rgba(28,46,39,0.08)" /><text x="454.0" y="146" text-anchor="middle" font-size="16" font-weight="700" fill="#3c342b" font-family="Avenir Next, Segoe UI, sans-serif">2</text><rect x="518" y="118" rx="16" ry="16" width="104" height="38" fill="#dfd7cb" stroke="rgba(28,46,39,0.08)" /><text x="570.0" y="146" text-anchor="middle" font-size="16" font-weight="700" fill="#3c342b" font-family="Avenir Next, Segoe UI, sans-serif">2</text><rect x="634" y="118" rx="16" ry="16" width="104" height="38" fill="#c7dbc9" stroke="rgba(28,46,39,0.08)" /><text x="686.0" y="146" text-anchor="middle" font-size="16" font-weight="700" fill="#3c342b" font-family="Avenir Next, Segoe UI, sans-serif">3</text><text x="156" y="199" text-anchor="end" font-size="16" fill="#1f1a14" font-family="Avenir Next, Segoe UI, sans-serif">ResearchRabbit</text><rect x="170" y="168" rx="16" ry="16" width="104" height="38" fill="#2d7a68" stroke="rgba(28,46,39,0.08)" /><text x="222.0" y="196" text-anchor="middle" font-size="16" font-weight="700" fill="#ffffff" font-family="Avenir Next, Segoe UI, sans-serif">5</text><rect x="286" y="168" rx="16" ry="16" width="104" height="38" fill="#8fbca1" stroke="rgba(28,46,39,0.08)" /><text x="338.0" y="196" text-anchor="middle" font-size="16" font-weight="700" fill="#ffffff" font-family="Avenir Next, Segoe UI, sans-serif">4</text><rect x="402" y="168" rx="16" ry="16" width="104" height="38" fill="#c7dbc9" stroke="rgba(28,46,39,0.08)" /><text x="454.0" y="196" text-anchor="middle" font-size="16" font-weight="700" fill="#3c342b" font-family="Avenir Next, Segoe UI, sans-serif">3</text><rect x="518" y="168" rx="16" ry="16" width="104" height="38" fill="#dfd7cb" stroke="rgba(28,46,39,0.08)" /><text x="570.0" y="196" text-anchor="middle" font-size="16" font-weight="700" fill="#3c342b" font-family="Avenir Next, Segoe UI, sans-serif">2</text><rect x="634" y="168" rx="16" ry="16" width="104" height="38" fill="#2d7a68" stroke="rgba(28,46,39,0.08)" /><text x="686.0" y="196" text-anchor="middle" font-size="16" font-weight="700" fill="#ffffff" font-family="Avenir Next, Segoe UI, sans-serif">5</text><text x="156" y="249" text-anchor="end" font-size="16" fill="#1f1a14" font-family="Avenir Next, Segoe UI, sans-serif">Semantic Scholar</text><rect x="170" y="218" rx="16" ry="16" width="104" height="38" fill="#8fbca1" stroke="rgba(28,46,39,0.08)" /><text x="222.0" y="246" text-anchor="middle" font-size="16" font-weight="700" fill="#ffffff" font-family="Avenir Next, Segoe UI, sans-serif">4</text><rect x="286" y="218" rx="16" ry="16" width="104" height="38" fill="#2d7a68" stroke="rgba(28,46,39,0.08)" /><text x="338.0" y="246" text-anchor="middle" font-size="16" font-weight="700" fill="#ffffff" font-family="Avenir Next, Segoe UI, sans-serif">5</text><rect x="402" y="218" rx="16" ry="16" width="104" height="38" fill="#c7dbc9" stroke="rgba(28,46,39,0.08)" /><text x="454.0" y="246" text-anchor="middle" font-size="16" font-weight="700" fill="#3c342b" font-family="Avenir Next, Segoe UI, sans-serif">3</text><rect x="518" y="218" rx="16" ry="16" width="104" height="38" fill="#c7dbc9" stroke="rgba(28,46,39,0.08)" /><text x="570.0" y="246" text-anchor="middle" font-size="16" font-weight="700" fill="#3c342b" font-family="Avenir Next, Segoe UI, sans-serif">3</text><rect x="634" y="218" rx="16" ry="16" width="104" height="38" fill="#8fbca1" stroke="rgba(28,46,39,0.08)" /><text x="686.0" y="246" text-anchor="middle" font-size="16" font-weight="700" fill="#ffffff" font-family="Avenir Next, Segoe UI, sans-serif">4</text><text x="156" y="299" text-anchor="end" font-size="16" fill="#1f1a14" font-family="Avenir Next, Segoe UI, sans-serif">Elicit</text><rect x="170" y="268" rx="16" ry="16" width="104" height="38" fill="#c7dbc9" stroke="rgba(28,46,39,0.08)" /><text x="222.0" y="296" text-anchor="middle" font-size="16" font-weight="700" fill="#3c342b" font-family="Avenir Next, Segoe UI, sans-serif">3</text><rect x="286" y="268" rx="16" ry="16" width="104" height="38" fill="#8fbca1" stroke="rgba(28,46,39,0.08)" /><text x="338.0" y="296" text-anchor="middle" font-size="16" font-weight="700" fill="#ffffff" font-family="Avenir Next, Segoe UI, sans-serif">4</text><rect x="402" y="268" rx="16" ry="16" width="104" height="38" fill="#8fbca1" stroke="rgba(28,46,39,0.08)" /><text x="454.0" y="296" text-anchor="middle" font-size="16" font-weight="700" fill="#ffffff" font-family="Avenir Next, Segoe UI, sans-serif">4</text><rect x="518" y="268" rx="16" ry="16" width="104" height="38" fill="#2d7a68" stroke="rgba(28,46,39,0.08)" /><text x="570.0" y="296" text-anchor="middle" font-size="16" font-weight="700" fill="#ffffff" font-family="Avenir Next, Segoe UI, sans-serif">5</text><rect x="634" y="268" rx="16" ry="16" width="104" height="38" fill="#8fbca1" stroke="rgba(28,46,39,0.08)" /><text x="686.0" y="296" text-anchor="middle" font-size="16" font-weight="700" fill="#ffffff" font-family="Avenir Next, Segoe UI, sans-serif">4</text><text x="156" y="349" text-anchor="end" font-size="16" fill="#1f1a14" font-family="Avenir Next, Segoe UI, sans-serif">SciSpace</text><rect x="170" y="318" rx="16" ry="16" width="104" height="38" fill="#c7dbc9" stroke="rgba(28,46,39,0.08)" /><text x="222.0" y="346" text-anchor="middle" font-size="16" font-weight="700" fill="#3c342b" font-family="Avenir Next, Segoe UI, sans-serif">3</text><rect x="286" y="318" rx="16" ry="16" width="104" height="38" fill="#c7dbc9" stroke="rgba(28,46,39,0.08)" /><text x="338.0" y="346" text-anchor="middle" font-size="16" font-weight="700" fill="#3c342b" font-family="Avenir Next, Segoe UI, sans-serif">3</text><rect x="402" y="318" rx="16" ry="16" width="104" height="38" fill="#2d7a68" stroke="rgba(28,46,39,0.08)" /><text x="454.0" y="346" text-anchor="middle" font-size="16" font-weight="700" fill="#ffffff" font-family="Avenir Next, Segoe UI, sans-serif">5</text><rect x="518" y="318" rx="16" ry="16" width="104" height="38" fill="#8fbca1" stroke="rgba(28,46,39,0.08)" /><text x="570.0" y="346" text-anchor="middle" font-size="16" font-weight="700" fill="#ffffff" font-family="Avenir Next, Segoe UI, sans-serif">4</text><rect x="634" y="318" rx="16" ry="16" width="104" height="38" fill="#c7dbc9" stroke="rgba(28,46,39,0.08)" /><text x="686.0" y="346" text-anchor="middle" font-size="16" font-weight="700" fill="#3c342b" font-family="Avenir Next, Segoe UI, sans-serif">3</text><text x="156" y="399" text-anchor="end" font-size="16" fill="#1f1a14" font-family="Avenir Next, Segoe UI, sans-serif">Research Atlas</text><rect x="170" y="368" rx="16" ry="16" width="104" height="38" fill="#8fbca1" stroke="rgba(28,46,39,0.08)" /><text x="222.0" y="396" text-anchor="middle" font-size="16" font-weight="700" fill="#ffffff" font-family="Avenir Next, Segoe UI, sans-serif">4</text><rect x="286" y="368" rx="16" ry="16" width="104" height="38" fill="#dfd7cb" stroke="rgba(28,46,39,0.08)" /><text x="338.0" y="396" text-anchor="middle" font-size="16" font-weight="700" fill="#3c342b" font-family="Avenir Next, Segoe UI, sans-serif">2</text><rect x="402" y="368" rx="16" ry="16" width="104" height="38" fill="#8fbca1" stroke="rgba(28,46,39,0.08)" /><text x="454.0" y="396" text-anchor="middle" font-size="16" font-weight="700" fill="#ffffff" font-family="Avenir Next, Segoe UI, sans-serif">4</text><rect x="518" y="368" rx="16" ry="16" width="104" height="38" fill="#8fbca1" stroke="rgba(28,46,39,0.08)" /><text x="570.0" y="396" text-anchor="middle" font-size="16" font-weight="700" fill="#ffffff" font-family="Avenir Next, Segoe UI, sans-serif">4</text><rect x="634" y="368" rx="16" ry="16" width="104" height="38" fill="#8fbca1" stroke="rgba(28,46,39,0.08)" /><text x="686.0" y="396" text-anchor="middle" font-size="16" font-weight="700" fill="#ffffff" font-family="Avenir Next, Segoe UI, sans-serif">4</text>
  <rect x="178" y="448" rx="10" ry="10" width="72" height="24" fill="#efe7dd" /><text x="214" y="465" text-anchor="middle" font-size="12" font-weight="700" fill="#3c342b" font-family="Avenir Next, Segoe UI, sans-serif">1</text><rect x="290" y="448" rx="10" ry="10" width="72" height="24" fill="#dfd7cb" /><text x="326" y="465" text-anchor="middle" font-size="12" font-weight="700" fill="#3c342b" font-family="Avenir Next, Segoe UI, sans-serif">2</text><rect x="402" y="448" rx="10" ry="10" width="72" height="24" fill="#c7dbc9" /><text x="438" y="465" text-anchor="middle" font-size="12" font-weight="700" fill="#3c342b" font-family="Avenir Next, Segoe UI, sans-serif">3</text><rect x="514" y="448" rx="10" ry="10" width="72" height="24" fill="#8fbca1" /><text x="550" y="465" text-anchor="middle" font-size="12" font-weight="700" fill="#fff" font-family="Avenir Next, Segoe UI, sans-serif">4</text><rect x="626" y="448" rx="10" ry="10" width="72" height="24" fill="#2d7a68" /><text x="662" y="465" text-anchor="middle" font-size="12" font-weight="700" fill="#fff" font-family="Avenir Next, Segoe UI, sans-serif">5</text>
</svg>
